<svg xmlns="http://www.w3.org/2000/svg" viewBox="0 0 40 40"><path d="M1351.6,3897.01h-19.21a1.4,1.4,0,0,1-1.4-1.4v-0.21a1.4,1.4,0,0,1,1.4-1.4h19.21a1.4,1.4,0,0,1,1.4,1.4v0.21A1.4,1.4,0,0,1,1351.6,3897.01Zm0-13h-19.21a1.4,1.4,0,0,1-1.4-1.4v-0.21a1.4,1.4,0,0,1,1.4-1.4h19.21a1.4,1.4,0,0,1,1.4,1.4v0.21A1.4,1.4,0,0,1,1351.6,3884.01Zm0-13h-19.21a1.4,1.4,0,0,1-1.4-1.4v-0.21a1.4,1.4,0,0,1,1.4-1.4h19.21a1.4,1.4,0,0,1,1.4,1.4v0.21A1.4,1.4,0,0,1,1351.6,3871.01Zm-25.68,28c-1.46,0-2.92-.63-2.92-2.22h2.02a0.775,0.775,0,0,0,.9.74,0.767,0.767,0,0,0,.9-0.75,0.838,0.838,0,0,0-.94-0.75h-0.28v-1.41h0.28a0.719,0.719,0,0,0,.84-0.67,0.814,0.814,0,0,0-1.6-.01h-2.02c0-1.33,1.25-2.14,2.82-2.14,1.62,0,2.82.88,2.82,2.1a1.482,1.482,0,0,1-.92,1.39,1.684,1.684,0,0,1,1.01,1.54C1328.83,3898.31,1327.46,3899.01,1325.92,3899.01Zm-2.92-14.48,3.29-2.8a0.954,0.954,0,0,0,.45-0.77,0.685,0.685,0,0,0-.81-0.66,0.716,0.716,0,0,0-.84.69H1323c0-1.4,1.35-2.17,2.93-2.17,1.68,0,2.9.81,2.9,2.15a2.183,2.183,0,0,1-1.12,1.76l-2.16,1.8h3.28v1.49H1323v-1.49Zm2.13-16.96h-1.3v-1.58H1328V3874h-2.87v-6.43Z" transform="translate(-1318 -3862.5)"/></svg>