<svg xmlns="http://www.w3.org/2000/svg"     viewBox="0 0 48 48">    <path            d="M24.000,-0.002 C27.960,-0.002 31.200,3.238 31.200,7.197 L31.200,14.397 L45.599,14.397 C46.919,14.397 47.999,15.477 47.999,16.797 L47.999,35.997 C47.999,42.597 42.599,47.996 35.999,47.996 L2.400,47.996 C1.080,47.996 0.000,46.917 0.000,45.597 L0.000,16.797 C0.000,15.477 1.080,14.397 2.400,14.397 L10.680,14.397 L18.360,1.197 C18.840,0.478 19.560,-0.002 20.400,-0.002 L24.000,-0.002 ZM43.199,19.197 L28.800,19.197 C27.480,19.197 26.400,18.117 26.400,16.797 L26.400,7.197 C26.400,5.877 25.320,4.798 24.000,4.798 L21.720,4.798 L14.400,17.397 L14.400,43.197 L35.999,43.197 C39.959,43.197 43.199,39.957 43.199,35.997 L43.199,19.197 ZM4.800,43.197 L9.600,43.197 L9.600,19.197 L4.800,19.197 L4.800,43.197 Z"/></svg>